<svg width="480" height="480" viewBox="0 0 480 480" fill="none" xmlns="http://www.w3.org/2000/svg">
<g clip-path="url(#clip0)">
<path d="M475.855 336.376C475.414 333.567 474.739 330.799 473.838 328.101C465.217 304.11 440.635 289.755 415.504 294.036C407.191 295.345 399.39 289.668 398.079 281.355L385.433 200.442C375.054 131.983 325.598 75.9199 258.969 57.0819C252.909 19.9939 217.931 -5.16011 180.842 0.899886C144.244 6.87989 119.173 41.0629 124.466 77.7669C67.034 114.113 36.718 181.132 47.342 248.263L60.893 334.381C62.134 342.678 56.488 350.435 48.213 351.806C22.979 355.447 3.98699 376.655 3.13999 402.136C2.84799 430.411 25.533 453.57 53.808 453.862C53.985 453.864 54.163 453.865 54.34 453.865C57.009 453.863 59.673 453.658 62.31 453.251L114.841 444.991C133.115 477.613 174.374 489.245 206.996 470.971C224.227 461.319 236.384 444.624 240.281 425.262L433.22 394.9C461.154 390.513 480.243 364.311 475.855 336.376ZM186.777 36.3129C188.556 36.0359 190.353 35.8929 192.153 35.8859C203.594 35.9469 214.251 41.7079 220.569 51.2459H219.75C213.385 51.0539 207.013 51.2369 200.669 51.7919C193.988 52.4299 187.349 53.4559 180.786 54.8639C179.369 55.1539 177.97 55.5639 176.57 55.9049C171.194 57.1679 165.92 58.6529 160.749 60.4109C160.237 60.5649 159.708 60.6499 159.196 60.8379C162.797 47.9689 173.576 38.3839 186.777 36.3129ZM173.806 445.486C166.573 445.494 159.529 443.172 153.719 438.864L201.506 431.372C195.075 440.252 184.77 445.503 173.806 445.486ZM439.824 353.207C437.211 357.498 432.841 360.42 427.877 361.194L222.31 393.518L122.419 409.236L57.054 419.476C52.102 420.284 47.048 418.846 43.264 415.551C39.402 412.258 37.207 407.416 37.274 402.341C38.013 393.588 44.8 386.559 53.521 385.513C80.401 381.204 98.755 355.995 94.6 329.091L81.066 242.973C72.202 186.159 99.789 129.862 150.118 102.054C150.414 101.955 150.704 101.841 150.988 101.713C167.322 92.8629 185.29 87.4379 203.792 85.7729C209.399 85.2799 215.032 85.1719 220.654 85.4489L223.453 85.5859C229.269 85.9379 235.055 86.6669 240.776 87.7709C240.964 87.7709 241.134 87.7709 241.322 87.7709C299.07 100.264 343.023 147.25 351.641 205.702L364.373 286.615C368.605 313.546 393.863 331.951 420.795 327.729C429.403 326.048 438.009 330.636 441.412 338.72C443.075 343.541 442.493 348.857 439.824 353.207Z" fill="white"/>
</g>
<defs>
<clipPath id="clip0">
<rect width="479.619" height="479.619" fill="white"/>
</clipPath>
</defs>
</svg>
