<svg width="478" height="478" viewBox="0 0 478 478" fill="none" xmlns="http://www.w3.org/2000/svg">
<g clip-path="url(#clip0)">
<path d="M238.933 0C106.974 0 0 106.974 0 238.933C0 370.892 106.974 477.866 238.933 477.866C370.892 477.866 477.866 370.892 477.866 238.933C477.726 107.033 370.834 0.141 238.933 0ZM238.933 443.733C125.825 443.733 34.133 352.041 34.133 238.933C34.133 125.825 125.825 34.133 238.933 34.133C352.041 34.133 443.733 125.825 443.733 238.933C443.611 351.991 351.991 443.611 238.933 443.733Z" fill="white"/>
<path d="M238.933 85.333C229.507 85.333 221.866 92.974 221.866 102.4V221.867H102.4C92.974 221.867 85.333 229.508 85.333 238.934C85.333 248.36 92.974 256 102.4 256H238.933C248.359 256 256 248.359 256 238.933V102.4C256 92.974 248.359 85.333 238.933 85.333Z" fill="white"/>
</g>
<defs>
<clipPath id="clip0">
<rect width="477.867" height="477.867" fill="white"/>
</clipPath>
</defs>
</svg>
