<svg width="512" height="512" viewBox="0 0 512 512" fill="none" xmlns="http://www.w3.org/2000/svg">
<g clip-path="url(#clip0)">
<path d="M495.984 240.008H293.323C284.491 240.008 277.323 232.841 277.323 224.009C277.323 215.177 284.491 208.009 293.323 208.009H495.984C504.816 208.009 511.984 215.177 511.984 224.009C511.984 232.841 504.816 240.008 495.984 240.008Z" fill="white"/>
<path d="M415.987 320.006C411.889 320.006 407.796 318.447 404.679 315.314C398.429 309.061 398.429 298.928 404.679 292.678L473.372 223.989L404.679 155.296C398.429 149.046 398.429 138.914 404.679 132.664C410.932 126.41 421.065 126.41 427.315 132.664L507.312 212.661C513.562 218.911 513.562 229.044 507.312 235.294L427.315 315.291C424.178 318.447 420.084 320.006 415.987 320.006V320.006Z" fill="white"/>
<path d="M170.663 512C166.096 512 161.764 511.359 157.436 510.015L29.0538 467.243C11.5856 461.142 0 444.865 0 426.67V42.6823C0 19.1517 19.1361 0.015625 42.6666 0.015625C47.229 0.015625 51.5609 0.65623 55.8928 1.99994L184.272 44.772C201.744 50.8734 213.325 67.1502 213.325 85.345V469.333C213.325 492.864 194.193 512 170.663 512ZM42.6666 32.0146C36.7996 32.0146 31.999 36.8153 31.999 42.6823V426.67C31.999 431.213 35.0497 435.436 39.4011 436.951L167.182 479.532C168.1 479.829 169.295 480.001 170.663 480.001C176.53 480.001 181.326 475.2 181.326 469.333V85.345C181.326 80.8022 178.276 76.5796 173.924 75.0641L46.1431 32.4834C45.2251 32.1865 44.0299 32.0146 42.6666 32.0146V32.0146Z" fill="white"/>
<path d="M325.322 170.678C316.49 170.678 309.322 163.511 309.322 154.679V58.6818C309.322 43.983 297.358 32.0146 282.659 32.0146H42.6665C33.8347 32.0146 26.667 24.8469 26.667 16.0151C26.667 7.18337 33.8347 0.015625 42.6665 0.015625H282.659C315.021 0.015625 341.321 26.3195 341.321 58.6818V154.679C341.321 163.511 334.153 170.678 325.322 170.678Z" fill="white"/>
<path d="M282.659 448.002H197.326C188.494 448.002 181.326 440.834 181.326 432.003C181.326 423.171 188.494 416.003 197.326 416.003H282.659C297.358 416.003 309.322 404.035 309.322 389.336V293.339C309.322 284.507 316.49 277.339 325.322 277.339C334.153 277.339 341.321 284.507 341.321 293.339V389.336C341.321 421.698 315.021 448.002 282.659 448.002V448.002Z" fill="white"/>
</g>
<defs>
<clipPath id="clip0">
<rect width="512" height="512" fill="white"/>
</clipPath>
</defs>
</svg>
