<svg width="512" height="512" viewBox="0 0 512 512" fill="none" xmlns="http://www.w3.org/2000/svg">
<path d="M469.333 0H42.6668C37.9568 0 34.1338 3.814 34.1338 8.533V503.466C34.1338 508.185 37.9568 511.999 42.6668 511.999H469.334C474.044 511.999 477.867 508.185 477.867 503.466V8.533C477.867 3.814 474.044 0 469.333 0ZM460.8 494.933H51.1998V17.067H460.8V494.933Z" fill="white"/>
<path d="M469.333 247.467H42.6668C37.9568 247.467 34.1338 251.281 34.1338 256C34.1338 260.719 37.9568 264.533 42.6668 264.533H469.334C474.044 264.533 477.867 260.719 477.867 256C477.867 251.281 474.044 247.467 469.333 247.467Z" fill="white"/>
<path d="M256 196.267C223.061 196.267 196.267 223.07 196.267 256C196.267 288.93 223.062 315.733 256 315.733C288.938 315.733 315.733 288.93 315.733 256C315.733 223.07 288.939 196.267 256 196.267ZM256 298.667C232.474 298.667 213.333 279.527 213.333 256C213.333 232.474 232.473 213.333 256 213.333C279.526 213.333 298.667 232.473 298.667 256C298.667 279.526 279.526 298.667 256 298.667Z" fill="white"/>
<path d="M366.933 392.533H145.067C140.357 392.533 136.534 396.347 136.534 401.066V503.466C136.534 508.185 140.357 511.999 145.067 511.999H366.934C371.644 511.999 375.467 508.185 375.467 503.466V401.066C375.467 396.348 371.644 392.533 366.933 392.533ZM358.4 494.933H153.6V409.6H358.4V494.933Z" fill="white"/>
<path d="M315.733 443.733H196.267C191.557 443.733 187.734 447.547 187.734 452.266V503.466C187.734 508.185 191.557 511.999 196.267 511.999H315.734C320.444 511.999 324.267 508.185 324.267 503.466V452.266C324.267 447.548 320.444 443.733 315.733 443.733ZM307.2 494.933H204.8V460.8H307.2V494.933V494.933Z" fill="white"/>
<path d="M256 341.333C218.359 341.333 187.733 368.136 187.733 401.066C187.733 405.785 191.556 409.599 196.266 409.599H315.733C320.443 409.599 324.266 405.785 324.266 401.066C324.267 368.137 293.641 341.333 256 341.333ZM205.833 392.533C210.586 373.086 231.288 358.4 256.009 358.4C280.73 358.4 301.423 373.086 306.176 392.533H205.833Z" fill="white"/>
<path d="M366.933 0H145.067C140.357 0 136.534 3.814 136.534 8.533V110.933C136.534 115.652 140.357 119.466 145.067 119.466H366.934C371.644 119.466 375.467 115.652 375.467 110.933V8.533C375.467 3.814 371.644 0 366.933 0ZM358.4 102.4H153.6V17.067H358.4V102.4Z" fill="white"/>
<path d="M315.733 0H196.267C191.557 0 187.734 3.814 187.734 8.533V59.733C187.734 64.452 191.557 68.266 196.267 68.266H315.734C320.444 68.266 324.267 64.452 324.267 59.733V8.533C324.267 3.814 320.444 0 315.733 0ZM307.2 51.2H204.8V17.067H307.2V51.2V51.2Z" fill="white"/>
<path d="M315.733 102.4H196.267C191.557 102.4 187.734 106.214 187.734 110.933C187.734 143.863 218.36 170.666 256.001 170.666C293.642 170.666 324.268 143.863 324.268 110.933C324.267 106.214 320.444 102.4 315.733 102.4ZM256 153.6C231.279 153.6 210.586 138.914 205.833 119.467H306.168C301.414 138.914 280.721 153.6 256 153.6Z" fill="white"/>
<path d="M42.6668 443.733C37.9568 443.733 34.1338 447.547 34.1338 452.266V503.466C34.1338 508.185 37.9568 511.999 42.6668 511.999H93.8668C98.5768 511.999 102.4 508.185 102.4 503.466C102.4 470.537 75.6048 443.733 42.6668 443.733ZM51.1998 494.933V461.662C67.8908 465.058 81.0748 478.242 84.4798 494.933H51.1998Z" fill="white"/>
<path d="M469.333 443.733C436.394 443.733 409.6 470.536 409.6 503.466C409.6 508.185 413.423 511.999 418.133 511.999H469.333C474.043 511.999 477.866 508.185 477.866 503.466V452.266C477.867 447.548 474.044 443.733 469.333 443.733ZM460.8 494.933H427.52C430.925 478.242 444.109 465.058 460.8 461.662V494.933V494.933Z" fill="white"/>
<path d="M469.333 0H418.133C413.423 0 409.6 3.814 409.6 8.533C409.6 41.463 436.395 68.266 469.333 68.266C474.043 68.266 477.866 64.452 477.866 59.733V8.533C477.867 3.814 474.044 0 469.333 0ZM460.8 50.338C444.109 46.942 430.925 33.758 427.52 17.067H460.8V50.338V50.338Z" fill="white"/>
<path d="M93.8668 0H42.6668C37.9568 0 34.1338 3.814 34.1338 8.533V59.733C34.1338 64.452 37.9568 68.266 42.6668 68.266C75.6058 68.266 102.4 41.463 102.4 8.533C102.4 3.814 98.5768 0 93.8668 0ZM51.1998 50.338V17.067H84.4798C81.0748 33.758 67.8908 46.942 51.1998 50.338Z" fill="white"/>
</svg>
