<svg width="512" height="512" viewBox="0 0 512 512" fill="none" xmlns="http://www.w3.org/2000/svg">
<path d="M296 452C290.48 452 286 456.48 286 462C286 467.52 290.48 472 296 472C301.52 472 306 467.52 306 462C306 456.48 301.52 452 296 452Z" fill="white"/>
<path d="M436 46H406V30C406 13.458 392.542 0 376 0H136C119.458 0 106 13.458 106 30V46H76C59.458 46 46 59.458 46 76C46 141.057 76.442 188.867 125.828 202.178C142.758 239.443 169.526 271.122 203.502 294.013C211.328 299.286 216 308.313 216 318.16V373.259C209.145 375.017 202.856 378.581 197.719 383.719C190.162 391.277 186 401.32 186 412H176C159.458 412 146 425.458 146 442V502C146 507.523 150.478 512 156 512H356C361.522 512 366 507.523 366 502V442C366 425.458 352.542 412 336 412H326C326 393.396 313.233 377.717 296 373.266V318.21C296 308.331 300.675 299.287 308.508 294.014C342.487 271.121 369.255 239.441 386.184 202.175C435.563 188.859 466 141.052 466 76C466 59.458 452.542 46 436 46ZM66 76C66 70.486 70.486 66 76 66H106V110.7C106 133.495 109.453 155.817 116.27 177.314C84.447 161.551 66 125.146 66 76ZM336 432C341.514 432 346 436.486 346 442V492H166V442C166 436.486 170.486 432 176 432H336ZM386 110.7C386 138.016 380.562 164.596 369.834 189.7C354.574 225.417 329.504 255.752 297.336 277.425C283.976 286.418 276 301.665 276 318.21V382C276 387.523 280.478 392 286 392C297.028 392 306 400.972 306 412H206C206 406.662 208.082 401.641 211.861 397.861C215.455 394.267 220.172 392.209 225.216 392.015C225.475 392.035 225.736 392.045 225.999 392.045C231.521 392.045 235.999 387.523 235.999 382V318.16C235.999 301.65 228.028 286.423 214.677 277.427C182.506 255.753 157.436 225.418 142.174 189.698C131.442 164.603 126 138.024 126 110.7V30C126 24.486 130.486 20 136 20H376C381.514 20 386 24.486 386 30V110.7ZM395.734 177.312C402.548 155.81 406 133.489 406 110.7V66H436C441.514 66 446 70.486 446 76C446 125.143 427.555 161.547 395.734 177.312Z" fill="white"/>
<path d="M335.139 118.16C333.964 114.539 330.834 111.9 327.066 111.354L283.91 105.09L264.607 65.9754C262.922 62.5614 259.446 60.4004 255.639 60.4004C251.832 60.4004 248.356 62.5614 246.671 65.9754L227.368 105.09L184.213 111.354C180.445 111.901 177.316 114.54 176.139 118.16C174.963 121.781 175.944 125.755 178.67 128.412L209.904 158.852L202.532 201.839C201.889 205.591 203.431 209.382 206.511 211.62C209.591 213.857 213.674 214.152 217.042 212.381L255.64 192.088L294.247 212.381C297.637 214.163 301.718 213.843 304.778 211.619C307.857 209.381 309.399 205.589 308.755 201.837L301.375 158.851L332.608 128.412C335.335 125.755 336.315 121.781 335.139 118.16ZM283.65 148.198C281.293 150.496 280.216 153.807 280.774 157.052L285.615 185.249L260.292 171.938C257.377 170.407 253.897 170.407 250.986 171.939L225.671 185.249L230.507 157.05C231.063 153.805 229.987 150.495 227.63 148.198L207.146 128.234L235.447 124.126C238.705 123.653 241.521 121.607 242.978 118.655L255.64 92.9964L268.302 118.655C269.759 121.607 272.575 123.653 275.833 124.126L304.135 128.234L283.65 148.198Z" fill="white"/>
<path d="M256 452H216C210.478 452 206 456.477 206 462C206 467.523 210.478 472 216 472H256C261.522 472 266 467.523 266 462C266 456.477 261.522 452 256 452Z" fill="white"/>
<path d="M410.01 482H415.585C412.745 481.437 410.835 481.381 410.01 482Z" fill="white"/>
</svg>
