<svg width="512" height="512" viewBox="0 0 512 512" fill="none" xmlns="http://www.w3.org/2000/svg">
<path d="M69.012 203.499H146.5C152.022 203.499 156.5 199.021 156.5 193.499C156.5 187.977 152.022 183.499 146.5 183.499H69.012C63.49 183.499 59.012 187.977 59.012 193.499C59.012 199.021 63.489 203.499 69.012 203.499Z" fill="white"/>
<path d="M69.012 272.745H146.5C152.022 272.745 156.5 268.267 156.5 262.745C156.5 257.223 152.022 252.745 146.5 252.745H69.012C63.49 252.745 59.012 257.223 59.012 262.745C59.012 268.267 63.489 272.745 69.012 272.745Z" fill="white"/>
<path d="M165.01 440.359C162.913 435.33 156.998 432.861 151.95 434.95C146.917 437.033 144.463 442.983 146.55 448.01C148.64 453.045 154.561 455.501 159.6 453.42C164.63 451.343 167.102 445.385 165.01 440.359V440.359Z" fill="white"/>
<path d="M509.317 285.619L390.373 157.939L426.791 121.606C433.116 115.351 436.6 107.005 436.6 98.1064C436.6 89.3314 433.202 81.0714 427.037 74.8504C414.284 61.9704 393.293 61.8044 380.243 74.4834C380.211 74.5144 380.18 74.5454 380.148 74.5764L330.217 124.387H311.561V85.9844C311.561 80.4624 307.083 75.9844 301.561 75.9844H248.608V67.8154C248.608 62.2934 244.13 57.8154 238.608 57.8154C233.086 57.8154 228.608 62.2934 228.608 67.8154V75.9844H192.077V67.8154C192.077 62.2934 187.599 57.8154 182.077 57.8154C176.555 57.8154 172.077 62.2934 172.077 67.8154V75.9844H135.545V67.8154C135.545 62.2934 131.067 57.8154 125.545 57.8154C120.023 57.8154 115.545 62.2934 115.545 67.8154V75.9844H79.012V67.8154C79.012 62.2934 74.534 57.8154 69.012 57.8154C63.49 57.8154 59.012 62.2934 59.012 67.8154V75.9844H10C4.478 75.9844 0 80.4624 0 85.9844V444.184C0 449.706 4.478 454.184 10 454.184H112.072C117.594 454.184 122.072 449.706 122.072 444.184C122.072 438.662 117.594 434.184 112.072 434.184H20V95.9844H59.012V105.057C59.012 110.579 63.49 115.057 69.012 115.057C74.534 115.057 79.012 110.579 79.012 105.057V95.9844H115.544V105.057C115.544 110.579 120.022 115.057 125.544 115.057C131.066 115.057 135.544 110.579 135.544 105.057V95.9844H172.076V105.057C172.076 110.579 176.554 115.057 182.076 115.057C187.598 115.057 192.076 110.579 192.076 105.057V95.9844H228.607V105.057C228.607 110.579 233.085 115.057 238.607 115.057C244.129 115.057 248.607 110.579 248.607 105.057V95.9844H291.56V124.443C273.598 125.173 256.444 132.758 243.708 145.423L170.117 219.013C165.67 223.46 166.496 231.077 171.757 234.482C180.043 239.841 189.331 243.306 199.036 244.703C202.271 245.169 205.552 245.405 208.859 245.405C208.875 245.405 208.89 245.404 208.905 245.404L197.426 256.856C196.593 257.688 195.932 258.656 195.443 259.701L163.364 307.885C160.473 312.227 159.293 317.184 159.725 321.99H69.012C63.49 321.99 59.012 326.468 59.012 331.99C59.012 337.512 63.49 341.99 69.012 341.99H181.635C185.963 341.99 190.328 340.547 193.892 338.125L242.651 304.994C243.228 304.616 243.785 304.17 244.273 303.684L266.888 281.122L291.561 305.741V434.184H200.053C194.531 434.184 190.053 438.662 190.053 444.184C190.053 449.706 194.531 454.184 200.053 454.184H301.561C307.083 454.184 311.561 449.706 311.561 444.184V325.262C324.203 335.761 339.965 341.484 356.609 341.484H396.506C404.803 341.484 412.848 344.925 418.527 350.871L494.717 431.838C500.777 438.279 511.999 433.841 511.999 424.985V292.435C512 289.906 511.041 287.47 509.317 285.619V285.619ZM257.852 159.566C267.538 149.88 280.802 144.385 294.5 144.385H310.167L247.862 206.54C242.097 212.075 236.64 217.499 229.257 220.921C218.363 225.97 205.706 226.776 194.253 223.163L257.852 159.566ZM394.218 88.7904C399.435 83.7644 407.768 83.8174 412.828 88.9264C415.26 91.3804 416.599 94.6404 416.599 98.1064C416.599 101.622 415.224 104.917 412.697 107.417L308.187 211.683L303.151 206.646C298.435 201.93 292.484 198.466 286.057 196.689L394.218 88.7904ZM182.651 321.583C181.795 322.165 180.997 322.098 180.255 321.362C179.149 320.266 179.71 319.423 180.012 318.969L206.144 279.718L221.581 295.131L182.651 321.583ZM237.219 282.471L218.666 263.918L237.72 244.906C239.519 251.417 243.083 257.361 247.851 262.128L252.73 266.997L237.219 282.471ZM492 399.767L433.042 337.113C423.557 327.181 410.24 321.485 396.506 321.485H356.609C343.1 321.485 330.397 316.236 320.842 306.706L261.957 247.95C253.456 241.575 255.355 227.442 261.96 220.734C269.381 213.512 281.75 213.527 289.008 220.787L336.85 268.629C340.699 272.476 347.142 272.477 350.993 268.629C354.898 264.724 354.898 258.392 350.993 254.486L322.33 225.823L376.206 172.073L492 296.372V399.767Z" fill="white"/>
</svg>
