<svg width="512" height="512" viewBox="0 0 512 512" fill="none" xmlns="http://www.w3.org/2000/svg">
<g clip-path="url(#clip0)">
<path d="M507.493 166.744L420.993 82.0529C400.851 62.3309 374.233 51.4699 346.043 51.4699H338.636C337.863 50.8359 337.015 50.2699 336.096 49.7859L313.447 37.8629C306.115 34.0019 297.046 36.8189 293.186 44.1489C291.955 46.4879 291.41 49.0029 291.467 51.4709H220.532C220.589 49.0039 220.044 46.4879 218.813 44.1489C214.954 36.8179 205.881 34.0029 198.552 37.8629L175.903 49.7859C174.984 50.2699 174.136 50.8359 173.363 51.4699H165.956C137.766 51.4699 111.147 62.3309 91.006 82.0529L4.50602 166.744C-1.26398 172.393 -1.52598 181.595 3.91102 187.563L60.472 249.654C65.736 255.433 74.555 256.2 80.739 251.418L115.857 224.254L119.416 461.094C119.539 469.289 126.218 475.868 134.414 475.868H377.588C385.784 475.868 392.463 469.289 392.586 461.094L396.145 224.254L431.263 251.418C437.446 256.2 446.265 255.434 451.53 249.654L508.091 187.563C513.526 181.595 513.263 172.393 507.493 166.744ZM438.669 219.221L390.773 182.174C386.277 178.696 380.206 178.059 375.088 180.524C369.969 182.988 366.682 188.133 366.597 193.814L362.81 445.869H149.189L145.402 193.814C145.317 188.133 142.03 182.988 136.911 180.524C131.794 178.059 125.721 178.698 121.226 182.174L73.329 219.222L35.832 178.058L111.993 103.489C126.495 89.2899 145.659 81.4699 165.955 81.4699H346.043C366.339 81.4699 385.503 89.2899 400.005 103.489L476.166 178.057L438.669 219.221Z" fill="white"/>
<path d="M195.274 125.007C186.99 125.007 180.274 131.723 180.274 140.007V253.312C180.274 261.596 186.99 268.312 195.274 268.312C203.558 268.312 210.274 261.596 210.274 253.312V140.007C210.274 131.723 203.558 125.007 195.274 125.007Z" fill="white"/>
<path d="M283.562 125.007C257.005 125.007 235.4 146.612 235.4 173.17V220.15C235.4 246.707 257.005 268.312 283.562 268.312C310.12 268.312 331.725 246.707 331.725 220.15V173.17C331.725 146.612 310.119 125.007 283.562 125.007ZM301.725 220.15C301.725 230.165 293.578 238.312 283.562 238.312C273.547 238.312 265.4 230.165 265.4 220.15V173.17C265.4 163.155 273.547 155.007 283.562 155.007C293.578 155.007 301.725 163.155 301.725 173.17V220.15Z" fill="white"/>
</g>
<defs>
<clipPath id="clip0">
<rect width="512" height="512" fill="white"/>
</clipPath>
</defs>
</svg>
