<svg width="512" height="512" viewBox="0 0 512 512" fill="none" xmlns="http://www.w3.org/2000/svg">
<path d="M221.867 34.1333H213.333C208.621 34.1333 204.8 37.9538 204.8 42.6667C204.8 47.3795 208.621 51.2 213.333 51.2H221.867C226.58 51.2 230.4 47.3795 230.4 42.6667C230.4 37.9538 226.58 34.1333 221.867 34.1333Z" fill="white"/>
<path d="M256 51.2H298.667C303.379 51.2 307.2 47.3795 307.2 42.6667C307.2 37.9538 303.379 34.1333 298.667 34.1333H256C251.287 34.1333 247.467 37.9538 247.467 42.6667C247.467 47.3795 251.287 51.2 256 51.2Z" fill="white"/>
<path d="M494.933 409.6H469.333V392.533C469.333 383.108 461.692 375.467 452.267 375.467H401.067V358.4H426.667C436.092 358.4 443.733 350.759 443.733 341.333V273.067C443.733 263.641 436.092 256 426.667 256H401.067V238.933C401.067 229.508 393.426 221.867 384 221.867H312.747C307.567 207.335 296.132 195.9 281.6 190.72V168.687C307.919 162.638 329.146 143.246 337.545 117.581C374.289 107.494 382.259 57.3099 383.949 35.3792C384.305 30.6792 382.691 26.0428 379.494 22.5792C376.228 19.0648 371.646 17.0678 366.848 17.0667H341.333C341.333 7.64101 333.692 0 324.267 0H187.733C178.308 0 170.667 7.64101 170.667 17.0667H145.152C140.354 17.0678 135.772 19.0648 132.506 22.5792C129.308 26.0422 127.694 30.6791 128.051 35.3792C129.758 57.3184 137.711 107.503 174.455 117.589C182.856 143.252 204.083 162.64 230.4 168.687V190.72C215.868 195.9 204.433 207.335 199.253 221.867H128C118.574 221.867 110.933 229.508 110.933 238.933V256H85.3333C75.9077 256 68.2667 263.641 68.2667 273.067V341.333C68.2667 350.759 75.9077 358.4 85.3333 358.4H110.933V375.467H59.7333C50.3077 375.467 42.6667 383.108 42.6667 392.533V409.6H17.0667C7.64101 409.6 0 417.241 0 426.667V494.933C0 504.359 7.64101 512 17.0667 512H85.3333C94.759 512 102.4 504.359 102.4 494.933V426.667C102.4 417.241 94.759 409.6 85.3333 409.6H59.7333V392.533H179.2V409.6H153.6C144.174 409.6 136.533 417.241 136.533 426.667V494.933C136.533 504.359 144.174 512 153.6 512H221.867C231.292 512 238.933 504.359 238.933 494.933V426.667C238.933 417.241 231.292 409.6 221.867 409.6H196.267V392.533C196.267 383.108 188.626 375.467 179.2 375.467H128V358.4H153.6C163.026 358.4 170.667 350.759 170.667 341.333V273.067C170.667 263.641 163.026 256 153.6 256H128V238.933H196.267C196.267 248.359 203.908 256 213.333 256H298.667C308.092 256 315.733 248.359 315.733 238.933H384V256H358.4C348.974 256 341.333 263.641 341.333 273.067V341.333C341.333 350.759 348.974 358.4 358.4 358.4H384V375.467H332.8C323.374 375.467 315.733 383.108 315.733 392.533V409.6H290.133C280.708 409.6 273.067 417.241 273.067 426.667V494.933C273.067 504.359 280.708 512 290.133 512H358.4C367.826 512 375.467 504.359 375.467 494.933V426.667C375.467 417.241 367.826 409.6 358.4 409.6H332.8V392.533H452.267V409.6H426.667C417.241 409.6 409.6 417.241 409.6 426.667V494.933C409.6 504.359 417.241 512 426.667 512H494.933C504.359 512 512 504.359 512 494.933V426.667C512 417.241 504.359 409.6 494.933 409.6ZM366.933 34.0651C365.696 50.1675 360.704 84.6933 341.154 97.4251C341.205 96.2389 341.333 95.0699 341.333 93.8667V34.1333L366.933 34.0651ZM85.3333 494.933H17.0667V426.667H85.3333V494.933ZM221.867 494.933H153.6V426.667H221.867V494.933ZM153.6 341.333H85.3333V273.067H153.6V341.333ZM145.152 34.1333H170.667V93.8667C170.667 95.0699 170.795 96.2389 170.846 97.4336C151.296 84.6933 146.321 50.176 145.152 34.1333V34.1333ZM187.733 93.8667V17.0667H324.267V93.8667C324.229 126.841 297.508 153.562 264.533 153.6H247.467C214.492 153.562 187.771 126.841 187.733 93.8667ZM247.467 170.667H264.533V187.733H247.467V170.667ZM213.333 238.933C213.333 220.082 228.615 204.8 247.467 204.8H264.533C283.373 204.828 298.638 220.094 298.667 238.933H213.333ZM358.4 273.067H426.667V341.333H358.4V273.067ZM358.4 494.933H290.133V426.667H358.4V494.933ZM494.933 494.933H426.667V426.667H494.933V494.933Z" fill="white"/>
</svg>
