<svg width="512" height="512" viewBox="0 0 512 512" fill="none" xmlns="http://www.w3.org/2000/svg">
<g clip-path="url(#clip0)">
<path d="M256 0C114.844 0 0 114.844 0 256C0 397.157 114.844 512.001 256 512.001C397.157 512.001 512.001 397.157 512.001 256C512.001 114.844 397.156 0 256 0ZM272.653 407.892C260.49 409.919 236.29 414.983 224 416.001C213.598 416.862 203.781 410.908 197.797 402.36C191.798 393.813 190.36 382.876 193.922 373.063L242.313 240.001H192C191.957 212.274 212.754 191.888 239.353 184.064C252.047 180.329 275.697 175.218 288 176.001C295.371 176.47 308.219 181.094 314.203 189.642C320.202 198.189 321.64 209.127 318.078 218.939L269.687 352.001H319.984C319.994 379.696 299.973 403.339 272.653 407.892ZM288 160.001C270.326 160.001 256 145.672 256 128C256 110.327 270.326 95.9999 288 95.9999C305.673 95.9999 320 110.327 320 128C320 145.673 305.674 160.001 288 160.001Z" fill="white"/>
</g>
<defs>
<clipPath id="clip0">
<rect width="512" height="512" fill="white"/>
</clipPath>
</defs>
</svg>
